<?xml version="1.0" encoding="UTF-8"?>
<svg xmlns="http://www.w3.org/2000/svg" width="400" height="500" viewBox="0 0 400 500">
  <rect width="400" height="500" fill="#1a1a2e"/>
  <rect x="12" y="12" width="376" height="476" fill="none" stroke="#c9a227" stroke-width="2.5"/>
  <g transform="translate(200,200)">
    <circle r="85" fill="#d4a574" stroke="#c9a227" stroke-width="3"/>
    <path d="M-85,-20 Q-85,-120 0,-120 Q85,-120 85,-20 L85,20 Q85,40 60,50 L-60,50 Q-85,40 -85,20 Z" fill="#d4a574"/>
    <ellipse cx="-30" cy="-20" rx="8" ry="5" fill="#1a1a2e"/>
    <ellipse cx="30" cy="-20" rx="8" ry="5" fill="#1a1a2e"/>
    <path d="M-15,25 Q0,35 15,25" fill="none" stroke="#1a1a2e" stroke-width="2"/>
    <path d="M-90,-30 Q-90,-100 0,-100 Q90,-100 90,-30 L90,-20 Q90,-50 0,-50 Q-90,-50 -90,-20 Z" fill="#1a1a2e" opacity="0.6"/>
    <rect x="-35" y="55" width="70" height="90" fill="#1a1a2e" rx="8"/>
    <path d="M-20,65 L-20,135 M20,65 L20,135" stroke="#c9a227" stroke-width="2"/>
  </g>
  <text y="410" font-family="Playfair Display, Georgia, serif" font-size="28" fill="#f6f4f0" text-anchor="middle" font-weight="700">Gayo</text>
  <text y="450" font-family="Georgia, serif" font-size="18" fill="#888">siglo II d.C.</text>
</svg>